<svg width="126" height="39" viewBox="0 0 126 39" fill="none" xmlns="http://www.w3.org/2000/svg">
<g id="Goeventy Logo">
<path id="Path 31" d="M26.8967 16.9644V16.9815C25.5725 17.768 24.0601 18.1816 22.52 18.1786C20.9798 18.1756 19.4691 17.756 18.1479 16.9644H26.8967Z" fill="#DE0D6B"/>
<path id="Path 32" d="M14.0039 9.6456C14.0015 8.27085 14.333 6.91608 14.9699 5.69775L18.2166 5.73608L20.0642 5.75876H20.0793C18.9611 7.17914 18.5935 8.29843 18.2609 9.97694L17.943 9.97917L17.6364 9.98158L14.0103 10.0051C14.0062 9.88568 14.0039 9.76624 14.0039 9.6456Z" fill="#DE0D6B"/>
<path id="Path 33" d="M26.897 18.2472V19.1288C26.8969 21.7887 26.1082 24.3888 24.6304 26.6004C23.1527 28.8119 21.0523 30.5356 18.5949 31.5535C16.1375 32.5714 13.4335 32.8377 10.8247 32.3187C8.21598 31.7998 5.8197 30.5189 3.93892 28.6381C2.05813 26.7573 0.777301 24.361 0.258402 21.7523C-0.260496 19.1435 0.00583829 16.4395 1.02373 13.9821C2.04162 11.5247 3.76534 9.42437 5.97693 7.94664C8.18852 6.46891 10.7886 5.68018 13.4485 5.68018L13.7406 5.68361C13.179 6.92901 12.8896 8.2799 12.8917 9.64606C12.8917 9.77341 12.8941 9.89972 12.8996 10.0259C11.215 10.1275 9.59162 10.6945 8.21011 11.6638C6.8286 12.6332 5.74312 13.9668 5.07446 15.5163C4.4058 17.0659 4.18019 18.7705 4.42271 20.4407C4.66524 22.1108 5.3664 23.6809 6.44818 24.9763C7.52995 26.2716 8.94992 27.2414 10.5501 27.7778C12.1502 28.3141 13.8678 28.396 15.5118 28.0143C17.1557 27.6325 18.6614 26.8022 19.8615 25.6156C21.0616 24.429 21.9089 22.9327 22.3091 21.2932H13.4485V16.9643H16.2544C17.702 18.2077 19.4862 18.9934 21.3809 19.2217C23.2755 19.4501 25.1953 19.111 26.897 18.2472Z" fill="#AE6CF8"/>
<path id="Path 29" d="M22.537 1.11231C21.4171 1.11161 20.308 1.3315 19.273 1.75944C18.238 2.18738 17.2975 2.81499 16.5051 3.60642C15.7126 4.39785 15.0839 5.33761 14.6546 6.37204C14.2254 7.40647 14.0041 8.51532 14.0034 9.63527C14.0034 9.6387 14.0034 9.64231 14.0034 9.64592C14.0034 9.76622 14.0057 9.88652 14.0113 10.0054C14.0819 11.6762 14.6419 13.2895 15.6217 14.6447C16.6015 15.9999 17.9579 17.0373 19.5224 17.628C21.0869 18.2188 22.7905 18.3368 24.4215 17.9674C26.0524 17.598 27.5389 16.7575 28.6962 15.5503C29.8535 14.3432 30.6306 12.8226 30.9309 11.1774C31.2312 9.53232 31.0414 7.83523 30.3852 6.29705C29.7291 4.75887 28.6354 3.44741 27.2401 2.52563C25.8447 1.60385 24.2093 1.11238 22.537 1.11231ZM22.5358 13.6952C21.7353 13.6949 20.9527 13.4573 20.2872 13.0123C19.6216 12.5674 19.1029 11.9352 18.7967 11.1955C18.4904 10.4558 18.4103 9.64194 18.5665 8.85675C18.7226 8.07156 19.1081 7.3503 19.6741 6.78415C20.2402 6.218 20.9614 5.83238 21.7465 5.67602C22.5317 5.51967 23.3456 5.5996 24.0853 5.90572C24.825 6.21185 25.4574 6.73041 25.9025 7.39587C26.3475 8.06133 26.5853 8.8438 26.5858 9.64437C26.5861 10.1762 26.4816 10.703 26.2782 11.1944C26.0749 11.6859 25.7767 12.1325 25.4007 12.5087C25.0247 12.8849 24.5783 13.1833 24.0869 13.3869C23.5956 13.5904 23.0689 13.6952 22.537 13.6952H22.5358Z" fill="#31BC98"/>
<path id="Path 34" d="M44.8142 26.5722C43.9206 30.307 40.9303 32.576 36.9433 32.576C31.9961 32.576 28.6558 29.0794 28.6558 23.909C28.6558 18.7533 31.9588 15.2793 36.8532 15.2793C41.6963 15.2793 44.8878 18.6865 44.8878 23.8866C44.8897 24.2916 44.8697 24.6964 44.8281 25.0992H32.9633C33.246 27.5542 34.7487 29.0125 37.0706 29.0125C38.8115 29.0125 39.9794 28.1942 40.634 26.5722H44.8142ZM40.6108 22.3466C40.2389 20.0032 38.9669 18.7832 36.8764 18.7832C34.7487 18.7832 33.3723 20.0776 33.0078 22.3466H40.6108Z" fill="#AE6CF8"/>
<path id="Path 35" d="M61.8289 15.7251L56.3084 32.129H50.1339L44.6733 15.7251H49.3608L53.2822 29.2875L57.2474 15.7254L61.8289 15.7251Z" fill="#AE6CF8"/>
<path id="Path 36" d="M77.7511 26.5722C76.8574 30.307 73.8671 32.576 69.8801 32.576C64.9329 32.576 61.5928 29.0794 61.5928 23.909C61.5928 18.7533 64.8958 15.2793 69.7902 15.2793C74.6333 15.2793 77.825 18.6865 77.825 23.8866C77.8267 24.2916 77.8068 24.6964 77.7653 25.0992H65.9C66.1827 27.5542 67.6855 29.0125 70.0073 29.0125C71.7482 29.0125 72.9158 28.1942 73.5705 26.5722H77.7511ZM73.5477 22.3466C73.1758 20.0032 71.9037 18.7832 69.8131 18.7832C67.6855 18.7832 66.3092 20.0776 65.9446 22.3466H73.5477Z" fill="#AE6CF8"/>
<path id="Path 37" d="M83.8455 32.1285H79.3892V15.7247H83.8455V20.6569C84.5372 17.1828 86.5682 15.2778 89.6111 15.2778C93.1448 15.2778 95.0566 17.8519 95.0566 22.5988V32.1287H90.6004V23.3426C90.6004 20.5453 89.5521 19.1542 87.4163 19.1542C85.1399 19.1542 83.8455 20.7009 83.8455 23.5212V32.1285Z" fill="#AE6CF8"/>
<path id="Path 38" d="M103.71 32.5675C100.102 32.5675 98.2125 30.4322 98.2125 26.2587V19.2658H96.1597V15.7246H98.213V11.9453H102.669V15.7246H107.386V19.2658H102.669V26.2656C102.669 28.1478 103.331 28.9809 104.849 28.9809C105.459 28.9809 106.27 28.847 107.386 28.5643V32.0014C106.191 32.3519 104.955 32.5422 103.71 32.5675Z" fill="#AE6CF8"/>
<path id="Path 39" d="M125.404 15.725L119.14 32.5903C117.712 36.4885 115.324 38.2144 111.411 38.2144C110.623 38.2117 109.836 38.142 109.06 38.0059V34.4054C109.641 34.4942 110.228 34.5415 110.816 34.5468C112.571 34.5468 113.702 33.9969 114.453 32.7018L108.25 15.725H112.936L116.849 28.6687L120.822 15.7241L125.404 15.725Z" fill="#AE6CF8"/>
<path id="Ellipse 1" d="M22.5374 18.1782C27.2554 18.1782 31.0801 14.3578 31.0801 9.64523C31.0801 4.93263 27.2554 1.1123 22.5374 1.1123C17.8193 1.1123 13.9946 4.93263 13.9946 9.64523C13.9946 14.3578 17.8193 18.1782 22.5374 18.1782Z" fill="#AE6CF8"/>
<path id="Path 31-2" d="M20.2149 14.5725L17.9733 14.331C18.2338 11.9129 17.8289 9.46944 16.8022 7.26455L18.8461 6.31299C20.0461 8.89012 20.5194 11.746 20.2149 14.5725Z" fill="white"/>
<path id="Path 33-2" d="M23.5289 14.306L21.2875 14.0618C21.2908 14.0315 21.6141 11.0248 21.4584 9.47447C21.3614 8.50865 21.0581 4.09852 21.0581 4.09852L23.3073 3.94385C23.3073 3.94505 23.6059 8.29607 23.7016 9.249C23.8812 11.0344 23.5433 14.1733 23.5289 14.306Z" fill="white"/>
<path id="Path 32-2" d="M25.0396 14.5737C24.8722 13.0316 24.8783 11.4757 25.0578 9.935C25.3344 7.90557 25.8389 7.0078 25.9372 6.84814L26.8969 7.43967L27.868 8.01194C27.8644 8.0183 27.5054 8.67015 27.2944 10.2179C27.1366 11.5837 27.1322 12.9629 27.281 14.3297L25.0396 14.5737Z" fill="white"/>
</g>
</svg>
